# xmcd
#
# Track frame offsets:
#	150
#	14887
#	29768
#	57262
#	80559
#	101152
#	138682
#	163900
#	179198
#	203076
#	218531
#	245925
#	265589
#	280984
#	305958
#
# Disc length: 4311 seconds
#
# Revision: 0
# Processed by: cddbd v1.5.2PL0 Copyright (c) Steve Scherf et al.
# Submitted via: EZCDAudioConverter 2.0.5.1
#
DISCID=f710d50f
DTITLE=Artistes varies - City Lounge - CD 3 - London
DYEAR=2005
DGENRE=Lounge
TTITLE0=Grand National - Drink To Moving On
TTITLE1=Alpha - Elvis
TTITLE2=The Cinematic Orchestra - All That You Giv (with Fontella Bass)
TTITLE3=The Herbaliser - Something Wicked This Way Co
TTITLE4=Slow Train - In The Black Of Night
TTITLE5=Doctor Rockit - Café De Flore
TTITLE6=TM Juke - Playground Games (with Alice Russell)
TTITLE7=Mr. Scruff - Get A Move On
TTITLE8=Mark Rae - Lavish (with Veba) (Deadbeats Remix)
TTITLE9=Temple Of Sound - Gold Of The Sun (with Wendy Stubbs and Jah Wobble)
TTITLE10=Aim - The Girl Who Fell Through The Ice (with Kate Rogers)
TTITLE11=Niko - You're My Favorite Music
TTITLE12=The Limp Twins - Sunday Driver
TTITLE13=Alice Russell - Take Your Time Change Your Mind
TTITLE14=Roots Manuva - Witness Dub
EXTD=
EXTT0=
EXTT1=
EXTT2=
EXTT3=
EXTT4=
EXTT5=
EXTT6=
EXTT7=
EXTT8=
EXTT9=
EXTT10=
EXTT11=
EXTT12=
EXTT13=
EXTT14=
PLAYORDER=
